<svg width="0" height="0" >
<defs>
<clipPath id="arrows">

<path d="M39.2291 55.4795L7.92031 23.808C3.54689 19.3839 3.59032 12.2514 8.01729 7.88089C12.4307 3.52373 19.5368 3.55632 23.9101 7.95379L70.904 55.2075C75.939 60.2703 75.9483 68.4464 70.9248 73.5206L23.8891 121.031C19.5303 125.434 12.4291 125.475 8.02023 121.122C3.59554 116.754 3.56282 109.622 7.94725 105.213L39.2016 73.7858C44.234 68.7256 44.2462 60.5547 39.2291 55.4795Z" fill="#444444"/>
<path d="M199.229 55.4795L167.92 23.808C163.547 19.3839 163.59 12.2514 168.017 7.88089C172.431 3.52373 179.537 3.55632 183.91 7.95379L230.904 55.2075C235.939 60.2703 235.948 68.4464 230.925 73.5206L183.889 121.031C179.53 125.434 172.429 125.475 168.02 121.122C163.596 116.754 163.563 109.622 167.947 105.213L199.202 73.7858C204.234 68.7256 204.246 60.5547 199.229 55.4795Z" fill="#444444"/>
<path d="M359.229 55.4795L327.92 23.808C323.547 19.3839 323.59 12.2514 328.017 7.88089C332.431 3.52373 339.537 3.55632 343.91 7.95379L390.904 55.2075C395.939 60.2703 395.948 68.4464 390.925 73.5206L343.889 121.031C339.53 125.434 332.429 125.475 328.02 121.122C323.596 116.754 323.563 109.622 327.947 105.213L359.202 73.7858C364.234 68.7256 364.246 60.5547 359.229 55.4795Z" fill="#444444"/>
<path d="M279.229 55.4795L247.92 23.808C243.547 19.3839 243.59 12.2514 248.017 7.88089C252.431 3.52373 259.537 3.55632 263.91 7.95379L310.904 55.2075C315.939 60.2703 315.948 68.4464 310.925 73.5206L263.889 121.031C259.53 125.434 252.429 125.475 248.02 121.122C243.596 116.754 243.563 109.622 247.947 105.213L279.202 73.7858C284.234 68.7256 284.246 60.5547 279.229 55.4795Z" fill="#444444"/>
<path d="M119.229 55.4795L87.9203 23.808C83.5469 19.3839 83.5903 12.2514 88.0173 7.88089C92.4307 3.52373 99.5368 3.55632 103.91 7.95379L150.904 55.2075C155.939 60.2703 155.948 68.4464 150.925 73.5206L103.889 121.031C99.5303 125.434 92.4291 125.475 88.0202 121.122C83.5955 116.754 83.5628 109.622 87.9473 105.213L119.202 73.7858C124.234 68.7256 124.246 60.5547 119.229 55.4795Z" fill="#444444"/>

</clipPath>
</defs>
</svg>
