<svg width="601" height="227" viewBox="0 0 601 227" fill="none" xmlns="http://www.w3.org/2000/svg">
<g filter="url(#filter0_ddd_50_208)">
<rect x="46.0171" y="37" width="252.414" height="128" rx="27" fill="#82B8FF"/>
<path d="M77.2216 62.3516H91.8847L108.547 114.288L125.21 62.3516H139.873L114.495 137H102.6L77.2216 62.3516ZM68.3007 62.3516H83.4765L86.2963 119.568V137H68.3007V62.3516ZM133.618 62.3516H148.845V137H130.798V119.568L133.618 62.3516ZM184.631 137H168.071L168.174 123.157H184.631C188.049 123.157 190.937 122.337 193.296 120.696C195.688 119.056 197.5 116.612 198.73 113.365C199.995 110.083 200.627 106.05 200.627 101.265V98.0352C200.627 94.4463 200.268 91.3018 199.551 88.6016C198.867 85.8672 197.842 83.5942 196.475 81.7827C195.107 79.937 193.398 78.5527 191.348 77.6299C189.331 76.707 187.007 76.2456 184.375 76.2456H167.764V62.3516H184.375C189.434 62.3516 194.065 63.2231 198.269 64.9663C202.507 66.6753 206.164 69.1362 209.241 72.3491C212.351 75.5278 214.744 79.3047 216.418 83.6797C218.127 88.0205 218.982 92.8398 218.982 98.1377V101.265C218.982 106.529 218.127 111.348 216.418 115.723C214.744 120.098 212.368 123.875 209.292 127.054C206.216 130.232 202.576 132.693 198.372 134.437C194.202 136.146 189.622 137 184.631 137ZM178.376 62.3516V137H160.381V62.3516H178.376ZM227.698 58.25H244.976V123.362L243.181 137H227.698V58.25ZM279.018 108.648V109.725C279.018 113.929 278.591 117.757 277.737 121.209C276.882 124.661 275.566 127.652 273.789 130.181C272.012 132.676 269.773 134.607 267.073 135.975C264.372 137.342 261.177 138.025 257.485 138.025C254.136 138.025 251.265 137.308 248.872 135.872C246.479 134.402 244.48 132.386 242.873 129.822C241.267 127.225 239.968 124.234 238.977 120.85C237.986 117.432 237.2 113.775 236.619 109.878V108.597C237.2 104.734 237.986 101.111 238.977 97.7275C239.968 94.3096 241.267 91.3188 242.873 88.7554C244.48 86.1577 246.462 84.1411 248.821 82.7056C251.213 81.2358 254.067 80.501 257.383 80.501C261.108 80.501 264.321 81.2017 267.021 82.603C269.756 84.0044 272.012 85.9697 273.789 88.499C275.566 91.0283 276.882 94.002 277.737 97.4199C278.591 100.838 279.018 104.581 279.018 108.648ZM261.741 109.725V108.648C261.741 106.631 261.621 104.734 261.382 102.957C261.143 101.18 260.715 99.6074 260.1 98.2402C259.485 96.873 258.613 95.7964 257.485 95.0103C256.357 94.2241 254.888 93.8311 253.076 93.8311C251.23 93.8311 249.675 94.1387 248.411 94.7539C247.18 95.3691 246.189 96.2578 245.437 97.4199C244.719 98.5479 244.206 99.9492 243.899 101.624C243.591 103.265 243.455 105.127 243.489 107.212V111.263C243.42 114.1 243.677 116.526 244.258 118.543C244.839 120.56 245.847 122.098 247.283 123.157C248.718 124.217 250.684 124.747 253.179 124.747C255.024 124.747 256.511 124.388 257.639 123.67C258.801 122.952 259.673 121.927 260.254 120.594C260.835 119.261 261.228 117.671 261.433 115.826C261.638 113.98 261.741 111.946 261.741 109.725Z" fill="#1F1F1F"/>
</g>
<g filter="url(#filter1_ddd_50_208)">
<path d="M351.103 82.7812H365.447V131.531C365.447 136.219 364.369 140.188 362.212 143.438C360.056 146.719 357.04 149.203 353.165 150.891C349.322 152.609 344.822 153.469 339.665 153.469C337.384 153.469 335.056 153.172 332.681 152.578C330.306 152.016 328.087 151.172 326.025 150.047C323.962 148.922 322.228 147.531 320.822 145.875L327.431 136.594C328.712 138.031 330.322 139.25 332.259 140.25C334.197 141.281 336.478 141.797 339.103 141.797C341.384 141.797 343.29 141.391 344.822 140.578C346.384 139.766 347.572 138.578 348.384 137.016C349.197 135.484 349.603 133.625 349.603 131.438V94.7812L351.103 82.7812ZM317.4 108.75V107.766C317.4 103.922 317.869 100.422 318.806 97.2656C319.775 94.0781 321.15 91.3438 322.931 89.0625C324.744 86.75 326.931 84.9688 329.494 83.7188C332.056 82.4688 334.947 81.8438 338.165 81.8438C341.634 81.8438 344.478 82.5156 346.697 83.8594C348.947 85.1719 350.744 87.0156 352.087 89.3906C353.462 91.7656 354.525 94.5469 355.275 97.7344C356.056 100.891 356.712 104.297 357.244 107.953V109.125C356.712 112.562 355.978 115.812 355.04 118.875C354.134 121.906 352.947 124.594 351.478 126.938C350.009 129.281 348.165 131.125 345.947 132.469C343.759 133.781 341.134 134.438 338.072 134.438C334.884 134.438 332.009 133.797 329.447 132.516C326.915 131.234 324.744 129.438 322.931 127.125C321.15 124.812 319.775 122.094 318.806 118.969C317.869 115.844 317.4 112.438 317.4 108.75ZM333.197 107.766V108.75C333.197 110.656 333.369 112.422 333.712 114.047C334.087 115.672 334.65 117.109 335.4 118.359C336.15 119.578 337.072 120.531 338.165 121.219C339.29 121.906 340.603 122.25 342.103 122.25C344.384 122.25 346.228 121.766 347.634 120.797C349.04 119.828 350.056 118.453 350.681 116.672C351.306 114.891 351.572 112.797 351.478 110.391V106.688C351.54 104.625 351.4 102.812 351.056 101.25C350.712 99.6562 350.165 98.3281 349.415 97.2656C348.697 96.2031 347.728 95.4062 346.509 94.875C345.322 94.3125 343.884 94.0312 342.197 94.0312C340.728 94.0312 339.431 94.375 338.306 95.0625C337.181 95.75 336.244 96.7188 335.494 97.9688C334.744 99.1875 334.165 100.641 333.759 102.328C333.384 103.984 333.197 105.797 333.197 107.766ZM400.884 120.75V99.8438C400.884 98.4062 400.681 97.1719 400.275 96.1406C399.869 95.1094 399.228 94.3125 398.353 93.75C397.478 93.1562 396.306 92.8594 394.837 92.8594C393.65 92.8594 392.634 93.0625 391.79 93.4688C390.947 93.875 390.306 94.4844 389.869 95.2969C389.431 96.1094 389.212 97.1406 389.212 98.3906H373.415C373.415 96.0469 373.931 93.875 374.962 91.875C376.025 89.8438 377.525 88.0781 379.462 86.5781C381.431 85.0781 383.775 83.9219 386.494 83.1094C389.244 82.2656 392.306 81.8438 395.681 81.8438C399.712 81.8438 403.306 82.5156 406.462 83.8594C409.65 85.2031 412.165 87.2188 414.009 89.9062C415.853 92.5625 416.775 95.9062 416.775 99.9375V120.703C416.775 124.016 416.962 126.531 417.337 128.25C417.712 129.938 418.244 131.422 418.931 132.703V133.5H403.087C402.337 131.938 401.775 130.031 401.4 127.781C401.056 125.5 400.884 123.156 400.884 120.75ZM402.806 102.516L402.9 110.953H395.915C394.447 110.953 393.197 111.156 392.165 111.562C391.165 111.969 390.353 112.531 389.728 113.25C389.134 113.938 388.697 114.719 388.415 115.594C388.165 116.469 388.04 117.391 388.04 118.359C388.04 119.297 388.259 120.141 388.697 120.891C389.165 121.609 389.79 122.172 390.572 122.578C391.353 122.984 392.228 123.188 393.197 123.188C394.947 123.188 396.431 122.859 397.65 122.203C398.9 121.516 399.853 120.688 400.509 119.719C401.165 118.75 401.494 117.844 401.494 117L404.962 123.469C404.337 124.719 403.619 125.984 402.806 127.266C402.025 128.547 401.04 129.734 399.853 130.828C398.697 131.891 397.275 132.766 395.587 133.453C393.9 134.109 391.853 134.438 389.447 134.438C386.322 134.438 383.447 133.797 380.822 132.516C378.228 131.234 376.15 129.453 374.587 127.172C373.025 124.859 372.244 122.203 372.244 119.203C372.244 116.578 372.712 114.234 373.65 112.172C374.619 110.109 376.072 108.359 378.009 106.922C379.947 105.484 382.415 104.391 385.415 103.641C388.415 102.891 391.947 102.516 396.009 102.516H402.806ZM441.478 93.5156V133.5H425.681V82.7812H440.494L441.478 93.5156ZM439.556 106.406L435.947 106.5C435.947 102.938 436.369 99.6562 437.212 96.6562C438.056 93.6562 439.306 91.0469 440.962 88.8281C442.619 86.6094 444.65 84.8906 447.056 83.6719C449.494 82.4531 452.306 81.8438 455.494 81.8438C457.712 81.8438 459.728 82.1875 461.54 82.875C463.353 83.5312 464.915 84.5781 466.228 86.0156C467.54 87.4219 468.54 89.2656 469.228 91.5469C469.947 93.7969 470.306 96.5 470.306 99.6562V133.5H454.509V101.672C454.509 99.5156 454.259 97.8906 453.759 96.7969C453.29 95.7031 452.603 94.9688 451.697 94.5938C450.79 94.2188 449.681 94.0312 448.369 94.0312C446.994 94.0312 445.759 94.3438 444.665 94.9688C443.572 95.5938 442.634 96.4688 441.853 97.5938C441.103 98.6875 440.525 99.9844 440.119 101.484C439.744 102.984 439.556 104.625 439.556 106.406ZM468.525 106.406L464.119 106.5C464.119 102.938 464.509 99.6562 465.29 96.6562C466.103 93.6562 467.306 91.0469 468.9 88.8281C470.525 86.6094 472.54 84.8906 474.947 83.6719C477.353 82.4531 480.15 81.8438 483.337 81.8438C485.65 81.8438 487.775 82.1875 489.712 82.875C491.65 83.5625 493.322 84.6719 494.728 86.2031C496.134 87.7344 497.228 89.7656 498.009 92.2969C498.79 94.7969 499.181 97.8906 499.181 101.578V133.5H483.337V101.578C483.337 99.4844 483.087 97.9062 482.587 96.8438C482.119 95.75 481.431 95.0156 480.525 94.6406C479.619 94.2344 478.54 94.0312 477.29 94.0312C475.79 94.0312 474.494 94.3438 473.4 94.9688C472.306 95.5938 471.384 96.4688 470.634 97.5938C469.915 98.6875 469.384 99.9844 469.04 101.484C468.697 102.984 468.525 104.625 468.525 106.406ZM532.79 134.438C528.665 134.438 524.978 133.797 521.728 132.516C518.478 131.203 515.728 129.406 513.478 127.125C511.259 124.844 509.556 122.219 508.369 119.25C507.212 116.281 506.634 113.141 506.634 109.828V108.047C506.634 104.328 507.15 100.891 508.181 97.7344C509.212 94.5469 510.744 91.7656 512.775 89.3906C514.806 87.0156 517.353 85.1719 520.415 83.8594C523.478 82.5156 527.04 81.8438 531.103 81.8438C534.697 81.8438 537.915 82.4219 540.759 83.5781C543.603 84.7344 546.009 86.3906 547.978 88.5469C549.978 90.7031 551.494 93.3125 552.525 96.375C553.587 99.4375 554.119 102.875 554.119 106.688V113.109H512.681V103.219H538.697V102C538.728 100.312 538.431 98.875 537.806 97.6875C537.212 96.5 536.337 95.5938 535.181 94.9688C534.025 94.3438 532.619 94.0312 530.962 94.0312C529.244 94.0312 527.822 94.4062 526.697 95.1562C525.603 95.9062 524.744 96.9375 524.119 98.25C523.525 99.5312 523.103 101.016 522.853 102.703C522.603 104.391 522.478 106.172 522.478 108.047V109.828C522.478 111.703 522.728 113.406 523.228 114.938C523.759 116.469 524.509 117.781 525.478 118.875C526.478 119.938 527.665 120.766 529.04 121.359C530.447 121.953 532.04 122.25 533.822 122.25C535.978 122.25 538.103 121.844 540.197 121.031C542.29 120.219 544.087 118.875 545.587 117L552.759 125.531C551.728 127 550.259 128.422 548.353 129.797C546.478 131.172 544.228 132.297 541.603 133.172C538.978 134.016 536.04 134.438 532.79 134.438Z" fill="white"/>
</g>
<defs>
<filter id="filter0_ddd_50_208" x="0.0170898" y="0" width="344.414" height="227" filterUnits="userSpaceOnUse" color-interpolation-filters="sRGB">
<feFlood flood-opacity="0" result="BackgroundImageFix"/>
<feColorMatrix in="SourceAlpha" type="matrix" values="0 0 0 0 0 0 0 0 0 0 0 0 0 0 0 0 0 0 127 0" result="hardAlpha"/>
<feOffset dy="9"/>
<feGaussianBlur stdDeviation="23"/>
<feColorMatrix type="matrix" values="0 0 0 0 0 0 0 0 0 0 0 0 0 0 0 0 0 0 0.12 0"/>
<feBlend mode="normal" in2="BackgroundImageFix" result="effect1_dropShadow_50_208"/>
<feColorMatrix in="SourceAlpha" type="matrix" values="0 0 0 0 0 0 0 0 0 0 0 0 0 0 0 0 0 0 127 0" result="hardAlpha"/>
<feOffset dy="24"/>
<feGaussianBlur stdDeviation="19"/>
<feColorMatrix type="matrix" values="0 0 0 0 0 0 0 0 0 0 0 0 0 0 0 0 0 0 0.14 0"/>
<feBlend mode="normal" in2="effect1_dropShadow_50_208" result="effect2_dropShadow_50_208"/>
<feColorMatrix in="SourceAlpha" type="matrix" values="0 0 0 0 0 0 0 0 0 0 0 0 0 0 0 0 0 0 127 0" result="hardAlpha"/>
<feOffset dy="11"/>
<feGaussianBlur stdDeviation="7.5"/>
<feColorMatrix type="matrix" values="0 0 0 0 0 0 0 0 0 0 0 0 0 0 0 0 0 0 0.2 0"/>
<feBlend mode="normal" in2="effect2_dropShadow_50_208" result="effect3_dropShadow_50_208"/>
<feBlend mode="normal" in="SourceGraphic" in2="effect3_dropShadow_50_208" result="shape"/>
</filter>
<filter id="filter1_ddd_50_208" x="271.4" y="44.8438" width="328.719" height="170.625" filterUnits="userSpaceOnUse" color-interpolation-filters="sRGB">
<feFlood flood-opacity="0" result="BackgroundImageFix"/>
<feColorMatrix in="SourceAlpha" type="matrix" values="0 0 0 0 0 0 0 0 0 0 0 0 0 0 0 0 0 0 127 0" result="hardAlpha"/>
<feOffset dy="9"/>
<feGaussianBlur stdDeviation="23"/>
<feColorMatrix type="matrix" values="0 0 0 0 0 0 0 0 0 0 0 0 0 0 0 0 0 0 0.12 0"/>
<feBlend mode="normal" in2="BackgroundImageFix" result="effect1_dropShadow_50_208"/>
<feColorMatrix in="SourceAlpha" type="matrix" values="0 0 0 0 0 0 0 0 0 0 0 0 0 0 0 0 0 0 127 0" result="hardAlpha"/>
<feOffset dy="24"/>
<feGaussianBlur stdDeviation="19"/>
<feColorMatrix type="matrix" values="0 0 0 0 0 0 0 0 0 0 0 0 0 0 0 0 0 0 0.14 0"/>
<feBlend mode="normal" in2="effect1_dropShadow_50_208" result="effect2_dropShadow_50_208"/>
<feColorMatrix in="SourceAlpha" type="matrix" values="0 0 0 0 0 0 0 0 0 0 0 0 0 0 0 0 0 0 127 0" result="hardAlpha"/>
<feOffset dy="11"/>
<feGaussianBlur stdDeviation="7.5"/>
<feColorMatrix type="matrix" values="0 0 0 0 0 0 0 0 0 0 0 0 0 0 0 0 0 0 0.2 0"/>
<feBlend mode="normal" in2="effect2_dropShadow_50_208" result="effect3_dropShadow_50_208"/>
<feBlend mode="normal" in="SourceGraphic" in2="effect3_dropShadow_50_208" result="shape"/>
</filter>
</defs>
</svg>
